<?xml version="1.0" encoding="UTF-8" standalone="no"?><!DOCTYPE svg PUBLIC "-//W3C//DTD SVG 1.1//EN" "http://www.w3.org/Graphics/SVG/1.1/DTD/svg11.dtd"><svg width="100%" height="100%" viewBox="0 0 240 355" version="1.1" xmlns="http://www.w3.org/2000/svg" xmlns:xlink="http://www.w3.org/1999/xlink" xml:space="preserve" xmlns:serif="http://www.serif.com/" style="fill-rule:evenodd;clip-rule:evenodd;stroke-linejoin:round;stroke-miterlimit:2;"><path d="M160.857,177.794l-146.385,-104.831c-0.113,-0.08 -0.223,-0.164 -0.332,-0.249c-6.847,-5.399 -11.499,-13.564 -13.367,-24.811c-1.737,-10.467 -0.539,-20.301 3.516,-29.512c0.021,-0.048 0.043,-0.095 0.065,-0.143c4.08,-8.847 10.351,-14.336 18.511,-16.794c8.558,-2.577 16.811,-1.014 24.656,5.156l182.521,141.268c0.729,0.564 1.367,1.237 1.892,1.996c5.285,7.64 8.066,16.938 8.066,27.973c-0,11.036 -2.781,20.334 -8.066,27.974l-0.719,1.039c-0.527,0.763 -1.17,1.439 -1.904,2.005c0,0 -181.796,140.225 -181.767,140.202c-7.964,6.273 -16.654,7.567 -26.066,3.904c-8.663,-3.371 -14.913,-10.136 -18.249,-20.727c-3.473,-10.889 -3.547,-21.36 -0.36,-31.412c3.359,-10.591 8.665,-17.923 15.358,-22.37l142.63,-100.668Z" style="fill:#fff;"/></svg>