<?xml version="1.0" encoding="UTF-8" standalone="no"?><!DOCTYPE svg PUBLIC "-//W3C//DTD SVG 1.1//EN" "http://www.w3.org/Graphics/SVG/1.1/DTD/svg11.dtd"><svg width="100%" height="100%" viewBox="0 0 284 363" version="1.1" xmlns="http://www.w3.org/2000/svg" xmlns:xlink="http://www.w3.org/1999/xlink" xml:space="preserve" xmlns:serif="http://www.serif.com/" style="fill-rule:evenodd;clip-rule:evenodd;stroke-linecap:round;stroke-linejoin:round;stroke-miterlimit:1.5;"><g><path d="M237.933,35.608l44.891,248.264c4.253,23.521 -11.389,46.069 -34.91,50.322l-151.525,27.399c-23.52,4.253 -46.069,-11.39 -50.322,-34.91l-44.891,-248.265c-4.253,-23.52 11.389,-46.069 34.91,-50.322l151.525,-27.399c23.52,-4.253 46.069,11.39 50.322,34.911Z" style="fill:#0088e2;fill-opacity:0.2;"/><path d="M31.082,71.565l119.94,-21.687" style="fill:none;stroke:#fff;stroke-width:8px;"/><path d="M38.298,96.581l164.916,-29.82" style="fill:none;stroke:#fff;stroke-width:8px;"/><path d="M42.515,119.905l164.917,-29.82" style="fill:none;stroke:#fff;stroke-width:8px;"/><path d="M47.275,146.228l164.916,-29.82" style="fill:none;stroke:#fff;stroke-width:8px;"/><path d="M52.035,172.551l164.916,-29.821" style="fill:none;stroke:#fff;stroke-width:8px;"/><path d="M56.794,198.873l164.917,-29.82" style="fill:none;stroke:#fff;stroke-width:8px;"/><path d="M61.554,225.196l164.917,-29.82" style="fill:none;stroke:#fff;stroke-width:8px;"/><path d="M66.314,251.519l164.916,-29.821" style="fill:none;stroke:#fff;stroke-width:8px;"/><path d="M71.073,277.841l164.917,-29.82" style="fill:none;stroke:#fff;stroke-width:8px;"/><path d="M75.833,304.164l164.917,-29.82" style="fill:none;stroke:#fff;stroke-width:8px;"/><path d="M80.593,330.487l164.916,-29.821" style="fill:none;stroke:#fff;stroke-width:8px;"/><path d="M187.484,35.543c3.951,-0.714 7.767,2.065 8.515,6.202c0.748,4.137 -1.853,8.076 -5.804,8.791c-3.951,0.714 -7.766,-2.065 -8.514,-6.202c-0.748,-4.137 1.852,-8.076 5.803,-8.791Z" style="fill:#fff;"/></g></svg>