<?xml version="1.0" encoding="UTF-8" standalone="no"?><!DOCTYPE svg PUBLIC "-//W3C//DTD SVG 1.1//EN" "http://www.w3.org/Graphics/SVG/1.1/DTD/svg11.dtd"><svg width="100%" height="100%" viewBox="0 0 311 319" version="1.1" xmlns="http://www.w3.org/2000/svg" xmlns:xlink="http://www.w3.org/1999/xlink" xml:space="preserve" xmlns:serif="http://www.serif.com/" style="fill-rule:evenodd;clip-rule:evenodd;stroke-linejoin:round;stroke-miterlimit:2;"><rect id="Final" x="-80" y="-111" width="1200" height="860" style="fill:none;"/><g><path d="M310.256,95.8l-0,136.4c-0,47.906 -38.894,86.8 -86.8,86.8l-136.4,0c-47.906,0 -86.8,-38.894 -86.8,-86.8l-0,-136.4c-0,-47.906 38.894,-86.8 86.8,-86.8l136.4,0c47.906,0 86.8,38.894 86.8,86.8Z" style="fill:#0088e2;"/><g><path d="M82.333,126.805c-8.783,0 -15.913,-7.542 -15.913,-16.831c-0,-9.289 7.13,-16.831 15.913,-16.831l145.869,-0c6.945,-0 13.087,4.764 15.176,11.769c2.089,7.006 -0.359,14.635 -6.048,18.848l-103.161,76.417l93.738,-1.837c8.781,-0.172 16.042,7.229 16.205,16.517c0.163,9.288 -6.835,16.968 -15.616,17.14l-145.869,2.857c-6.998,0.137 -13.259,-4.578 -15.426,-11.618c-2.166,-7.039 0.27,-14.75 6.003,-18.996l104.536,-77.435l-95.407,0Z" style="fill:#fff;"/><ellipse cx="46.849" cy="109.974" rx="15.593" ry="15.188" style="fill:#fff;"/><ellipse cx="263.663" cy="215.169" rx="15.593" ry="15.188" style="fill:#fff;"/></g></g></svg>