<?xml version="1.0" encoding="UTF-8" standalone="no"?><!DOCTYPE svg PUBLIC "-//W3C//DTD SVG 1.1//EN" "http://www.w3.org/Graphics/SVG/1.1/DTD/svg11.dtd"><svg width="100%" height="100%" viewBox="0 0 311 319" version="1.1" xmlns="http://www.w3.org/2000/svg" xmlns:xlink="http://www.w3.org/1999/xlink" xml:space="preserve" xmlns:serif="http://www.serif.com/" style="fill-rule:evenodd;clip-rule:evenodd;stroke-linejoin:round;stroke-miterlimit:2;"><rect id="Final" x="-80" y="-111" width="1200" height="860" style="fill:none;"/><g><path d="M310.256,95.8l-0,136.4c-0,47.906 -38.894,86.8 -86.8,86.8l-136.4,0c-47.906,0 -86.8,-38.894 -86.8,-86.8l-0,-136.4c-0,-47.906 38.894,-86.8 86.8,-86.8l136.4,0c47.906,0 86.8,38.894 86.8,86.8Z" style="fill:#0088e2;"/><g><path d="M110.7,95.327c-7.606,-4.392 -10.01,-14.488 -5.366,-22.533c4.645,-8.045 14.591,-11.011 22.197,-6.62l126.326,72.935c6.015,3.472 8.953,10.669 7.259,17.78c-1.694,7.112 -7.629,12.495 -14.662,13.3l-127.548,14.597l82.097,45.279c7.691,4.242 10.279,14.282 5.776,22.406c-4.503,8.125 -14.403,11.278 -22.093,7.036l-127.755,-70.46c-6.13,-3.38 -9.194,-10.594 -7.551,-17.774c1.644,-7.18 7.609,-12.639 14.697,-13.45l129.248,-14.793l-82.625,-47.703Z" style="fill:#fff;"/><path d="M95.979,49.856c7.453,4.303 10.101,13.69 5.91,20.949c-4.191,7.259 -13.644,9.659 -21.097,5.356c-7.453,-4.303 -10.101,-13.69 -5.91,-20.949c4.191,-7.259 13.644,-9.659 21.097,-5.356Z" style="fill:#fff;"/><path d="M231.149,249.364c7.453,4.303 10.101,13.69 5.91,20.949c-4.191,7.259 -13.645,9.66 -21.098,5.357c-7.453,-4.303 -10.101,-13.69 -5.91,-20.95c4.191,-7.259 13.645,-9.659 21.098,-5.356Z" style="fill:#fff;"/></g></g></svg>