<?xml version="1.0" encoding="UTF-8" standalone="no"?><!DOCTYPE svg PUBLIC "-//W3C//DTD SVG 1.1//EN" "http://www.w3.org/Graphics/SVG/1.1/DTD/svg11.dtd"><svg width="100%" height="100%" viewBox="0 0 398 390" version="1.1" xmlns="http://www.w3.org/2000/svg" xmlns:xlink="http://www.w3.org/1999/xlink" xml:space="preserve" xmlns:serif="http://www.serif.com/" style="fill-rule:evenodd;clip-rule:evenodd;stroke-linejoin:round;stroke-miterlimit:2;"><path id="SettingsNavIcon" d="M221.135,2.244l22.834,34.869c19.665,5.427 38.193,14.35 54.697,26.341l41.498,-3.889c10.589,10.59 19.956,22.335 27.923,35.015l-13.025,39.592c8.018,18.759 12.594,38.808 13.509,59.188l28.914,30.02c-1.677,14.881 -5.02,29.527 -9.966,43.662l-39.075,14.502c-9.667,17.965 -22.489,34.043 -37.852,47.465l-5.443,41.323c-12.68,7.967 -26.215,14.485 -40.351,19.431l-35.701,-21.508c-20.072,3.642 -40.637,3.642 -60.709,-0l-35.701,21.508c-14.136,-4.946 -27.671,-11.464 -40.351,-19.431l-5.443,-41.323c-15.363,-13.422 -28.185,-29.5 -37.852,-47.465l-39.075,-14.502c-4.946,-14.135 -8.289,-28.781 -9.966,-43.662l28.914,-30.02c0.915,-20.38 5.491,-40.429 13.509,-59.188l-13.025,-39.592c7.967,-12.68 17.334,-24.425 27.923,-35.015l41.498,3.889c16.504,-11.991 35.032,-20.914 54.697,-26.341l22.834,-34.869c14.881,-1.677 29.904,-1.677 44.785,0Zm-22.393,148.743c27.596,-0 50,22.404 50,50c0,27.595 -22.404,50 -50,50c-27.595,-0 -50,-22.405 -50,-50c0,-27.596 22.405,-50 50,-50Z" style="fill:#b3b3b3;"/></svg>