<?xml version="1.0" encoding="UTF-8" standalone="no"?><!DOCTYPE svg PUBLIC "-//W3C//DTD SVG 1.1//EN" "http://www.w3.org/Graphics/SVG/1.1/DTD/svg11.dtd"><svg width="100%" height="100%" viewBox="0 0 489 363" version="1.1" xmlns="http://www.w3.org/2000/svg" xmlns:xlink="http://www.w3.org/1999/xlink" xml:space="preserve" xmlns:serif="http://www.serif.com/" style="fill-rule:evenodd;clip-rule:evenodd;stroke-linejoin:round;stroke-miterlimit:2;"><rect id="Pages-Creative-UI-Elements" serif:id="Pages Creative UI Elements" x="-66" y="-9" width="1920" height="1080" style="fill:none;"/><g id="Pages-Creative-UI-Elements1" serif:id="Pages Creative UI Elements"><circle cx="207.772" cy="161.685" r="151.114" style="fill:#0088e2;fill-opacity:0.18;"/><path d="M74.197,72.058l1.091,-2.52l2.307,-1.506l2.77,1.265l1.62,3.46l10.91,139.768l-9.974,0.712l-8.724,-141.179Z" style="fill:#00d676;"/><path d="M47.097,98.833c0,-0 14.268,-9.577 28.961,-5.824l0.581,16.832c-0,-0 -1.549,-11.877 -29.542,-11.008Z" style="fill:#00ca6f;"/><path d="M39.229,165.606c-0,0 20.456,-24.234 40.315,-26.542l1.135,24.399c0,0 2.403,-27.366 -41.45,2.143" style="fill:#00ca6f;"/><path d="M87.848,140.916c0,0 9.097,0.276 21.807,25.501c0,-0 -11.812,-18.46 -21.807,-15.577c-9.995,2.884 0,-9.924 0,-9.924Z" style="fill:#00ca6f;"/><path d="M83.548,105.632c-0,-0 10.762,-1.161 18.78,11.184c0,-0 -10.551,-6.858 -17.303,-2.427" style="fill:#00ca6f;"/><path d="M222.587,162.263l181.92,0.32l-0.777,77.49l-181.995,0.56l0.852,-78.37Z" style="fill:#ffbf3a;"/><path d="M194.283,139.765l28.114,20.943l-0.331,79.586l-26.79,-0.322l-0.993,-100.207Z" style="fill:#f4a400;"/><path d="M192.48,139.57c0.801,0 1.568,0.318 2.134,0.884c0.566,0.566 0.884,1.334 0.884,2.134c0,16.837 0,98.412 0,98.412l-47.028,0l-0,-98.412c-0,-0.8 0.318,-1.568 0.884,-2.134c0.566,-0.566 1.333,-0.884 2.134,-0.884c8.488,0 32.504,0 40.992,0Z" style="fill:#ffbf3a;"/><path d="M453.025,150l11.693,21.875l-4.551,72.764l-14.161,-1.587l7.019,-93.052Z" style="fill:#f1aa16;"/><path d="M401.699,152c0.017,-1.662 1.369,-3 3.032,-3c9.03,-0 35.897,-0 45.058,-0c0.816,-0 1.597,0.329 2.168,0.912c0.57,0.583 0.882,1.372 0.863,2.188c-0.36,16.129 -2.006,89.724 -2.006,89.724l-50.076,2.018c-0,-0 0.792,-75.709 0.961,-91.842Z" style="fill:#ffbf3a;"/><path d="M452.991,240.363l6.913,3.924c0,0 -0.698,53.648 -0.839,64.49c-0.014,1.063 -0.858,1.929 -1.92,1.971c-2.425,0.097 -6.315,0.252 -6.315,0.252l2.161,-70.637Z" style="fill:#f1aa16;"/><path d="M453.025,239.412l-0,68.854c-0,0.789 -0.315,1.546 -0.874,2.103c-0.56,0.557 -1.318,0.869 -2.108,0.866c-29.535,-0.121 -269.196,-1.102 -298.616,-1.223c-1.635,-0.007 -2.957,-1.334 -2.957,-2.969c-0,-13.318 -0,-67.085 -0,-67.085l304.555,-0.546Z" style="fill:#ffbf3a;"/><path d="M128.795,213.131l10.99,4.546l-20.98,89.554l-5.549,0.021l15.539,-94.121Z" style="fill:#d0d0d0;"/><path d="M128.407,212.881l-14.885,94.426l-54.092,0l-12.02,-94.426l80.997,0Z" style="fill:#d8d8d8;"/><path d="M222.5,161c0,0 29.959,29.727 66.5,50c26.804,14.871 100,28.118 100,28.118l-166,-3.118l-0.5,-75Z" style="fill:#f1aa16;fill-opacity:0.53;"/><path d="M224,236l165,2l0,3l-193.5,-1l28.5,-4Z" style="fill:#f5a501;"/></g></svg>